<svg xmlns="http://www.w3.org/2000/svg" xmlns:xlink="http://www.w3.org/1999/xlink" width="500" zoomAndPan="magnify" viewBox="0 0 375 374.999991" height="500" preserveAspectRatio="xMidYMid meet" version="1.0"><defs><g/><clipPath id="4cf365ccb4"><path d="M 112.5 76.511719 L 262.5 76.511719 L 262.5 226.511719 L 112.5 226.511719 Z M 112.5 76.511719 " clip-rule="nonzero"/></clipPath></defs><g fill="#ffffff" fill-opacity="1"><g transform="translate(124.87915, 253.711083)"><g><path d="M 15.953125 -23.078125 C 17.859375 -23.078125 19.234375 -22.476562 20.078125 -21.28125 C 20.898438 -20.15625 21.3125 -18.46875 21.3125 -16.21875 L 21.3125 -16.375 C 21.3125 -14.15625 20.898438 -12.46875 20.078125 -11.3125 C 19.234375 -10.132812 17.859375 -9.546875 15.953125 -9.546875 L 6.390625 -9.515625 L 6.390625 -0.953125 C 6.390625 -0.523438 6.285156 -0.253906 6.078125 -0.140625 C 5.867188 -0.0234375 5.707031 0.03125 5.59375 0.03125 L 3.03125 0.03125 C 2.914062 0.03125 2.753906 -0.0234375 2.546875 -0.140625 C 2.335938 -0.253906 2.234375 -0.523438 2.234375 -0.953125 L 2.234375 -12.71875 C 2.234375 -13.144531 2.335938 -13.40625 2.546875 -13.5 C 2.753906 -13.601562 2.914062 -13.65625 3.03125 -13.65625 L 15.234375 -13.65625 C 15.941406 -13.65625 16.4375 -13.863281 16.71875 -14.28125 C 17.019531 -14.6875 17.171875 -15.359375 17.171875 -16.296875 C 17.171875 -17.234375 17.019531 -17.90625 16.71875 -18.3125 C 16.4375 -18.71875 15.941406 -18.921875 15.234375 -18.921875 L 3.03125 -18.921875 C 2.914062 -18.921875 2.753906 -18.972656 2.546875 -19.078125 C 2.335938 -19.179688 2.234375 -19.445312 2.234375 -19.875 L 2.234375 -22.09375 C 2.234375 -22.539062 2.335938 -22.816406 2.546875 -22.921875 C 2.753906 -23.023438 2.914062 -23.078125 3.03125 -23.078125 Z M 15.953125 -23.078125 "/></g></g></g><g fill="#ffffff" fill-opacity="1"><g transform="translate(149.823743, 253.711083)"><g><path d="M 19.0625 -5.015625 C 19.195312 -5.015625 19.363281 -4.960938 19.5625 -4.859375 C 19.769531 -4.753906 19.875 -4.488281 19.875 -4.0625 L 19.875 -0.984375 C 19.875 -0.554688 19.769531 -0.289062 19.5625 -0.1875 C 19.363281 -0.0820312 19.195312 -0.03125 19.0625 -0.03125 L 9.125 -0.03125 C 8.507812 -0.03125 7.941406 -0.0664062 7.421875 -0.140625 C 6.898438 -0.210938 6.421875 -0.332031 5.984375 -0.5 C 5.078125 -0.820312 4.351562 -1.335938 3.8125 -2.046875 C 3.25 -2.773438 2.847656 -3.6875 2.609375 -4.78125 C 2.515625 -5.25 2.429688 -5.765625 2.359375 -6.328125 C 2.296875 -6.890625 2.253906 -7.492188 2.234375 -8.140625 L 2.234375 -8.28125 L 2.296875 -11.8125 C 2.347656 -12.019531 2.453125 -12.253906 2.609375 -12.515625 C 3.015625 -13.242188 3.648438 -13.632812 4.515625 -13.6875 L 18.953125 -13.71875 C 19.066406 -13.71875 19.222656 -13.664062 19.421875 -13.5625 C 19.628906 -13.457031 19.734375 -13.191406 19.734375 -12.765625 L 19.734375 -10.5625 C 19.734375 -10.125 19.628906 -9.847656 19.421875 -9.734375 C 19.222656 -9.628906 19.066406 -9.578125 18.953125 -9.578125 L 6.4375 -9.578125 C 6.4375 -9.578125 6.429688 -9.472656 6.421875 -9.265625 C 6.410156 -9.054688 6.398438 -8.820312 6.390625 -8.5625 C 6.390625 -8.300781 6.390625 -8.066406 6.390625 -7.859375 C 6.390625 -7.660156 6.390625 -7.5625 6.390625 -7.5625 C 6.398438 -7.488281 6.40625 -7.410156 6.40625 -7.328125 C 6.40625 -7.242188 6.414062 -7.160156 6.4375 -7.078125 C 6.507812 -6.554688 6.671875 -6.140625 6.921875 -5.828125 C 7.140625 -5.546875 7.414062 -5.335938 7.75 -5.203125 C 7.957031 -5.148438 8.175781 -5.101562 8.40625 -5.0625 C 8.644531 -5.03125 8.914062 -5.015625 9.21875 -5.015625 Z M 4.703125 -13.46875 Z M 19.09375 -23.125 C 19.207031 -23.125 19.363281 -23.066406 19.5625 -22.953125 C 19.769531 -22.847656 19.875 -22.578125 19.875 -22.140625 L 19.875 -19.9375 C 19.875 -19.507812 19.769531 -19.238281 19.5625 -19.125 C 19.363281 -19.007812 19.207031 -18.953125 19.09375 -18.953125 L 3 -18.984375 C 2.882812 -18.984375 2.726562 -19.035156 2.53125 -19.140625 C 2.332031 -19.242188 2.234375 -19.507812 2.234375 -19.9375 L 2.234375 -22.125 C 2.234375 -22.570312 2.332031 -22.847656 2.53125 -22.953125 C 2.726562 -23.066406 2.882812 -23.125 3 -23.125 Z M 19.09375 -23.125 "/></g></g></g><g fill="#ffffff" fill-opacity="1"><g transform="translate(173.340538, 253.711083)"><g><path d="M 15.65625 -9.609375 L 20.5 -1.203125 C 20.613281 -1.078125 20.648438 -0.863281 20.609375 -0.5625 C 20.566406 -0.164062 20.351562 0.03125 19.96875 0.03125 L 16.9375 0.03125 C 16.65625 0.03125 16.460938 -0.0234375 16.359375 -0.140625 C 16.242188 -0.234375 16.140625 -0.363281 16.046875 -0.53125 L 11.671875 -8.203125 C 11.378906 -8.765625 11.070312 -9.128906 10.75 -9.296875 C 10.4375 -9.484375 9.929688 -9.578125 9.234375 -9.578125 L 6.40625 -9.578125 L 6.40625 -0.953125 C 6.40625 -0.523438 6.300781 -0.253906 6.09375 -0.140625 C 5.894531 -0.0234375 5.738281 0.03125 5.625 0.03125 L 3.046875 0.03125 C 2.941406 0.03125 2.78125 -0.0234375 2.5625 -0.140625 C 2.34375 -0.253906 2.234375 -0.523438 2.234375 -0.953125 L 2.234375 -22.09375 C 2.234375 -22.539062 2.34375 -22.816406 2.5625 -22.921875 C 2.78125 -23.023438 2.941406 -23.078125 3.046875 -23.078125 L 5.625 -23.078125 C 5.738281 -23.078125 5.894531 -23.023438 6.09375 -22.921875 C 6.300781 -22.816406 6.40625 -22.539062 6.40625 -22.09375 L 6.40625 -13.71875 L 8.984375 -13.71875 C 9.171875 -13.71875 9.335938 -13.722656 9.484375 -13.734375 C 9.640625 -13.742188 9.773438 -13.757812 9.890625 -13.78125 C 10.109375 -13.8125 10.300781 -13.863281 10.46875 -13.9375 C 10.632812 -14.03125 10.785156 -14.164062 10.921875 -14.34375 C 10.992188 -14.425781 11.070312 -14.53125 11.15625 -14.65625 C 11.238281 -14.78125 11.316406 -14.90625 11.390625 -15.03125 L 15.625 -22.515625 C 15.695312 -22.660156 15.800781 -22.789062 15.9375 -22.90625 C 16.039062 -23.019531 16.242188 -23.078125 16.546875 -23.078125 L 19.3125 -23.078125 C 19.65625 -23.078125 19.875 -22.914062 19.96875 -22.59375 C 20 -22.351562 19.96875 -22.128906 19.875 -21.921875 L 15.265625 -13.796875 C 14.984375 -13.335938 14.726562 -12.921875 14.5 -12.546875 C 14.40625 -12.410156 14.316406 -12.28125 14.234375 -12.15625 C 14.148438 -12.039062 14.0625 -11.925781 13.96875 -11.8125 C 14.25 -11.550781 14.53125 -11.234375 14.8125 -10.859375 C 15.09375 -10.484375 15.375 -10.066406 15.65625 -9.609375 Z M 15.65625 -9.609375 "/></g></g></g><g fill="#ffffff" fill-opacity="1"><g transform="translate(197.613226, 253.711083)"><g><path d="M 21.59375 -23.078125 C 21.71875 -23.078125 21.878906 -23.023438 22.078125 -22.921875 C 22.273438 -22.816406 22.375 -22.550781 22.375 -22.125 L 22.375 -8.765625 C 22.375 -7.984375 22.34375 -7.253906 22.28125 -6.578125 C 22.226562 -5.910156 22.140625 -5.304688 22.015625 -4.765625 C 21.742188 -3.609375 21.335938 -2.691406 20.796875 -2.015625 C 20.253906 -1.304688 19.53125 -0.785156 18.625 -0.453125 C 17.78125 -0.148438 16.722656 0 15.453125 0 L 9.15625 0 C 7.882812 0 6.828125 -0.148438 5.984375 -0.453125 C 5.554688 -0.617188 5.15625 -0.832031 4.78125 -1.09375 C 4.414062 -1.351562 4.101562 -1.660156 3.84375 -2.015625 C 3.257812 -2.722656 2.847656 -3.640625 2.609375 -4.765625 C 2.472656 -5.304688 2.375 -5.910156 2.3125 -6.578125 C 2.257812 -7.253906 2.234375 -7.984375 2.234375 -8.765625 L 2.234375 -22.125 C 2.234375 -22.550781 2.335938 -22.816406 2.546875 -22.921875 C 2.753906 -23.023438 2.921875 -23.078125 3.046875 -23.078125 L 5.59375 -23.078125 C 5.726562 -23.078125 5.894531 -23.023438 6.09375 -22.921875 C 6.289062 -22.816406 6.390625 -22.550781 6.390625 -22.125 L 6.390625 -8.3125 C 6.390625 -7.90625 6.398438 -7.519531 6.421875 -7.15625 C 6.453125 -6.789062 6.488281 -6.476562 6.53125 -6.21875 C 6.632812 -5.707031 6.789062 -5.285156 7 -4.953125 C 7.226562 -4.671875 7.507812 -4.46875 7.84375 -4.34375 C 8.03125 -4.28125 8.242188 -4.226562 8.484375 -4.1875 C 8.722656 -4.15625 8.992188 -4.140625 9.296875 -4.140625 L 15.34375 -4.140625 C 15.644531 -4.140625 15.914062 -4.15625 16.15625 -4.1875 C 16.394531 -4.226562 16.609375 -4.28125 16.796875 -4.34375 C 17.128906 -4.46875 17.410156 -4.671875 17.640625 -4.953125 C 17.734375 -5.109375 17.820312 -5.289062 17.90625 -5.5 C 17.988281 -5.71875 18.050781 -5.957031 18.09375 -6.21875 C 18.125 -6.476562 18.15625 -6.789062 18.1875 -7.15625 C 18.21875 -7.519531 18.234375 -7.90625 18.234375 -8.3125 L 18.234375 -22.125 C 18.234375 -22.550781 18.328125 -22.816406 18.515625 -22.921875 C 18.710938 -23.023438 18.878906 -23.078125 19.015625 -23.078125 Z M 21.59375 -23.078125 "/></g></g></g><g fill="#ffffff" fill-opacity="1"><g transform="translate(223.621674, 253.711083)"><g><path d="M 22.0625 -23.078125 C 22.175781 -23.078125 22.332031 -23.023438 22.53125 -22.921875 C 22.738281 -22.816406 22.84375 -22.539062 22.84375 -22.09375 L 22.84375 -3.578125 C 22.84375 -2.222656 22.648438 -1.289062 22.265625 -0.78125 C 21.867188 -0.238281 21.257812 0.03125 20.4375 0.03125 L 18.390625 0.03125 C 18.023438 0.03125 17.707031 0 17.4375 -0.0625 C 17.3125 -0.09375 17.179688 -0.128906 17.046875 -0.171875 C 16.921875 -0.222656 16.800781 -0.285156 16.6875 -0.359375 C 16.46875 -0.492188 16.265625 -0.703125 16.078125 -0.984375 C 15.984375 -1.109375 15.878906 -1.253906 15.765625 -1.421875 C 15.648438 -1.597656 15.535156 -1.796875 15.421875 -2.015625 L 6.546875 -17.75 C 6.535156 -17.789062 6.519531 -17.816406 6.5 -17.828125 C 6.476562 -17.835938 6.46875 -17.84375 6.46875 -17.84375 L 6.328125 -17.84375 C 6.328125 -17.84375 6.328125 -17.835938 6.328125 -17.828125 C 6.328125 -17.816406 6.328125 -17.800781 6.328125 -17.78125 L 6.328125 -0.953125 C 6.328125 -0.523438 6.226562 -0.253906 6.03125 -0.140625 C 5.832031 -0.0234375 5.671875 0.03125 5.546875 0.03125 L 3.046875 0.03125 C 2.921875 0.03125 2.753906 -0.0234375 2.546875 -0.140625 C 2.335938 -0.253906 2.234375 -0.523438 2.234375 -0.953125 L 2.234375 -19.453125 C 2.234375 -20.816406 2.429688 -21.757812 2.828125 -22.28125 C 3.234375 -22.8125 3.835938 -23.078125 4.640625 -23.078125 L 6.75 -23.078125 C 6.9375 -23.078125 7.113281 -23.070312 7.28125 -23.0625 C 7.445312 -23.050781 7.597656 -23.035156 7.734375 -23.015625 C 8.023438 -22.960938 8.285156 -22.851562 8.515625 -22.6875 C 8.703125 -22.550781 8.894531 -22.332031 9.09375 -22.03125 C 9.1875 -21.90625 9.285156 -21.757812 9.390625 -21.59375 C 9.492188 -21.425781 9.601562 -21.238281 9.71875 -21.03125 L 18.5625 -5.296875 C 18.582031 -5.234375 18.609375 -5.203125 18.640625 -5.203125 L 18.78125 -5.203125 C 18.78125 -5.222656 18.78125 -5.234375 18.78125 -5.234375 C 18.78125 -5.234375 18.78125 -5.242188 18.78125 -5.265625 L 18.78125 -22.09375 C 18.78125 -22.539062 18.878906 -22.816406 19.078125 -22.921875 C 19.273438 -23.023438 19.441406 -23.078125 19.578125 -23.078125 Z M 22.0625 -23.078125 "/></g></g></g><g fill="#ffffff" fill-opacity="1"><g transform="translate(124.939303, 268.161105)"><g><path d="M 5.71875 -8.40625 C 6.445312 -8.40625 7.085938 -8.289062 7.640625 -8.0625 C 8.203125 -7.84375 8.664062 -7.539062 9.03125 -7.15625 C 9.40625 -6.769531 9.6875 -6.320312 9.875 -5.8125 C 10.070312 -5.300781 10.171875 -4.765625 10.171875 -4.203125 C 10.171875 -3.429688 10 -2.726562 9.65625 -2.09375 C 9.320312 -1.457031 8.828125 -0.945312 8.171875 -0.5625 C 7.515625 -0.1875 6.695312 0 5.71875 0 L 1.828125 0 L 1.828125 -8.40625 Z M 5.65625 -1.25 C 6.394531 -1.25 6.992188 -1.378906 7.453125 -1.640625 C 7.910156 -1.910156 8.25 -2.269531 8.46875 -2.71875 C 8.6875 -3.164062 8.796875 -3.660156 8.796875 -4.203125 C 8.796875 -4.722656 8.6875 -5.207031 8.46875 -5.65625 C 8.25 -6.113281 7.910156 -6.476562 7.453125 -6.75 C 6.992188 -7.019531 6.394531 -7.15625 5.65625 -7.15625 L 3.125 -7.15625 L 3.125 -1.25 Z M 5.65625 -1.25 "/></g></g></g><g fill="#ffffff" fill-opacity="1"><g transform="translate(140.287317, 268.161105)"><g><path d="M 1.828125 -8.40625 L 8.1875 -8.40625 L 8.1875 -7.15625 L 3.125 -7.15625 L 3.125 -4.9375 L 7.53125 -4.9375 L 7.53125 -3.6875 L 3.125 -3.6875 L 3.125 -1.25 L 8.1875 -1.25 L 8.1875 0 L 1.828125 0 Z M 1.828125 -8.40625 "/></g></g></g><g fill="#ffffff" fill-opacity="1"><g transform="translate(154.027321, 268.161105)"><g><path d="M 9.59375 -8.40625 L 5.953125 0 L 4.5 0 L 0.8125 -8.40625 L 2.28125 -8.40625 L 4.4375 -3.359375 C 4.5625 -3.054688 4.703125 -2.734375 4.859375 -2.390625 C 5.015625 -2.046875 5.15625 -1.707031 5.28125 -1.375 C 5.394531 -1.707031 5.523438 -2.039062 5.671875 -2.375 C 5.816406 -2.71875 5.953125 -3.039062 6.078125 -3.34375 L 8.078125 -8.40625 Z M 9.59375 -8.40625 "/></g></g></g><g fill="#ffffff" fill-opacity="1"><g transform="translate(168.427329, 268.161105)"><g><path d="M 1.828125 -8.40625 L 8.1875 -8.40625 L 8.1875 -7.15625 L 3.125 -7.15625 L 3.125 -4.9375 L 7.53125 -4.9375 L 7.53125 -3.6875 L 3.125 -3.6875 L 3.125 -1.25 L 8.1875 -1.25 L 8.1875 0 L 1.828125 0 Z M 1.828125 -8.40625 "/></g></g></g><g fill="#ffffff" fill-opacity="1"><g transform="translate(182.167334, 268.161105)"><g><path d="M 8.125 -1.25 L 8.125 0 L 1.828125 0 L 1.828125 -8.40625 L 3.125 -8.40625 L 3.125 -1.25 Z M 8.125 -1.25 "/></g></g></g><g fill="#ffffff" fill-opacity="1"><g transform="translate(195.643346, 268.161105)"><g><path d="M 10.65625 -4.203125 C 10.65625 -3.585938 10.535156 -3.019531 10.296875 -2.5 C 10.066406 -1.976562 9.738281 -1.519531 9.3125 -1.125 C 8.894531 -0.738281 8.394531 -0.429688 7.8125 -0.203125 C 7.238281 0.015625 6.609375 0.125 5.921875 0.125 C 5.234375 0.125 4.597656 0.015625 4.015625 -0.203125 C 3.429688 -0.429688 2.929688 -0.738281 2.515625 -1.125 C 2.097656 -1.519531 1.769531 -1.976562 1.53125 -2.5 C 1.300781 -3.019531 1.1875 -3.585938 1.1875 -4.203125 C 1.1875 -4.804688 1.300781 -5.367188 1.53125 -5.890625 C 1.769531 -6.421875 2.097656 -6.878906 2.515625 -7.265625 C 2.929688 -7.660156 3.429688 -7.96875 4.015625 -8.1875 C 4.597656 -8.40625 5.234375 -8.515625 5.921875 -8.515625 C 6.609375 -8.515625 7.238281 -8.40625 7.8125 -8.1875 C 8.394531 -7.96875 8.894531 -7.660156 9.3125 -7.265625 C 9.738281 -6.878906 10.066406 -6.421875 10.296875 -5.890625 C 10.535156 -5.367188 10.65625 -4.804688 10.65625 -4.203125 Z M 9.34375 -4.203125 C 9.34375 -4.785156 9.191406 -5.304688 8.890625 -5.765625 C 8.597656 -6.222656 8.191406 -6.585938 7.671875 -6.859375 C 7.160156 -7.128906 6.578125 -7.265625 5.921875 -7.265625 C 5.242188 -7.265625 4.648438 -7.128906 4.140625 -6.859375 C 3.628906 -6.585938 3.226562 -6.222656 2.9375 -5.765625 C 2.65625 -5.304688 2.515625 -4.785156 2.515625 -4.203125 C 2.515625 -3.617188 2.65625 -3.09375 2.9375 -2.625 C 3.226562 -2.164062 3.628906 -1.800781 4.140625 -1.53125 C 4.648438 -1.269531 5.242188 -1.140625 5.921875 -1.140625 C 6.578125 -1.140625 7.160156 -1.269531 7.671875 -1.53125 C 8.191406 -1.800781 8.597656 -2.171875 8.890625 -2.640625 C 9.191406 -3.109375 9.34375 -3.628906 9.34375 -4.203125 Z M 9.34375 -4.203125 "/></g></g></g><g fill="#ffffff" fill-opacity="1"><g transform="translate(211.483365, 268.161105)"><g><path d="M 6.1875 -8.40625 C 6.664062 -8.40625 7.101562 -8.289062 7.5 -8.0625 C 7.894531 -7.832031 8.210938 -7.519531 8.453125 -7.125 C 8.703125 -6.738281 8.828125 -6.300781 8.828125 -5.8125 C 8.828125 -5.320312 8.695312 -4.875 8.4375 -4.46875 C 8.1875 -4.0625 7.847656 -3.738281 7.421875 -3.5 C 7.003906 -3.257812 6.539062 -3.140625 6.03125 -3.140625 L 3.125 -3.140625 L 3.125 0 L 1.828125 0 L 1.828125 -8.40625 Z M 5.953125 -4.390625 C 6.222656 -4.390625 6.472656 -4.453125 6.703125 -4.578125 C 6.941406 -4.710938 7.128906 -4.882812 7.265625 -5.09375 C 7.398438 -5.3125 7.46875 -5.550781 7.46875 -5.8125 C 7.46875 -6.0625 7.398438 -6.285156 7.265625 -6.484375 C 7.128906 -6.691406 6.941406 -6.851562 6.703125 -6.96875 C 6.472656 -7.09375 6.222656 -7.15625 5.953125 -7.15625 L 3.125 -7.15625 L 3.125 -4.390625 Z M 5.953125 -4.390625 "/></g></g></g><g fill="#ffffff" fill-opacity="1"><g transform="translate(225.53537, 268.161105)"><g><path d="M 1.828125 -8.40625 L 8.1875 -8.40625 L 8.1875 -7.15625 L 3.125 -7.15625 L 3.125 -4.9375 L 7.53125 -4.9375 L 7.53125 -3.6875 L 3.125 -3.6875 L 3.125 -1.25 L 8.1875 -1.25 L 8.1875 0 L 1.828125 0 Z M 1.828125 -8.40625 "/></g></g></g><g fill="#ffffff" fill-opacity="1"><g transform="translate(239.275374, 268.161105)"><g><path d="M 8.953125 -5.78125 C 8.953125 -5.21875 8.773438 -4.707031 8.421875 -4.25 C 8.078125 -3.800781 7.640625 -3.476562 7.109375 -3.28125 L 9.390625 0.015625 L 7.78125 0 L 5.640625 -3.125 L 3.125 -3.125 L 3.125 0 L 1.828125 0 L 1.828125 -8.40625 L 6.25 -8.40625 C 6.71875 -8.40625 7.15625 -8.289062 7.5625 -8.0625 C 7.976562 -7.84375 8.3125 -7.535156 8.5625 -7.140625 C 8.820312 -6.742188 8.953125 -6.289062 8.953125 -5.78125 Z M 5.9375 -7.15625 L 3.125 -7.15625 L 3.125 -4.375 L 6.0625 -4.375 C 6.34375 -4.375 6.597656 -4.4375 6.828125 -4.5625 C 7.066406 -4.695312 7.25 -4.867188 7.375 -5.078125 C 7.507812 -5.296875 7.578125 -5.53125 7.578125 -5.78125 C 7.578125 -6.050781 7.503906 -6.285156 7.359375 -6.484375 C 7.210938 -6.691406 7.015625 -6.851562 6.765625 -6.96875 C 6.515625 -7.09375 6.238281 -7.15625 5.9375 -7.15625 Z M 5.9375 -7.15625 "/></g></g></g><g clip-path="url(#4cf365ccb4)"><path fill="#5ce1e6" d="M 262.5 151.511719 C 262.5 143.074219 256.6875 134.898438 246.132812 128.40625 C 249.960938 116.753906 250.003906 107.023438 246.269531 100.136719 C 247.183594 98.933594 247.703125 97.492188 247.703125 95.960938 C 247.703125 92.121094 244.582031 88.996094 240.75 88.996094 C 238.765625 88.996094 236.886719 89.851562 235.570312 91.3125 C 229.007812 89.117188 220.414062 89.652344 210.601562 92.871094 C 204.109375 82.320312 195.9375 76.511719 187.5 76.511719 C 179.0625 76.511719 170.886719 82.324219 164.394531 92.878906 C 150.070312 88.171875 138.539062 89.21875 131.871094 95.886719 C 129.171875 98.59375 127.394531 102.097656 126.546875 106.296875 C 122.722656 106.3125 119.617188 109.429688 119.617188 113.261719 C 119.617188 117.09375 122.738281 120.214844 126.570312 120.214844 C 126.632812 120.214844 126.683594 120.207031 126.742188 120.207031 C 127.222656 122.828125 127.929688 125.574219 128.855469 128.40625 C 118.308594 134.898438 112.5 143.078125 112.5 151.511719 C 112.5 159.949219 118.3125 168.125 128.867188 174.613281 C 124.160156 188.941406 125.207031 200.472656 131.871094 207.136719 C 135.800781 211.066406 141.421875 213.050781 148.308594 213.050781 C 153.101562 213.050781 158.515625 212.078125 164.394531 210.144531 C 170.886719 220.699219 179.0625 226.511719 187.5 226.511719 C 195.9375 226.511719 204.113281 220.699219 210.601562 210.144531 C 216.484375 212.078125 221.898438 213.050781 226.691406 213.050781 C 233.578125 213.050781 239.195312 211.070312 243.125 207.136719 C 249.792969 200.472656 250.839844 188.941406 246.132812 174.617188 C 256.6875 168.125 262.5 159.949219 262.5 151.511719 Z M 216.160156 191.925781 C 215.53125 191.746094 214.882812 191.640625 214.226562 191.640625 C 210.386719 191.640625 207.261719 194.761719 207.261719 198.59375 C 207.261719 201.183594 208.734375 203.527344 210.941406 204.714844 C 210.472656 205.625 210.011719 206.472656 209.554688 207.269531 C 203.195312 205.011719 196.523438 201.699219 189.683594 197.40625 C 194.0625 194.472656 198.414062 191.226562 202.636719 187.703125 C 207.992188 187.160156 213.164062 186.332031 218.066406 185.257812 C 217.492188 187.542969 216.855469 189.773438 216.160156 191.925781 Z M 165.460938 207.261719 C 161.980469 201.191406 159.0625 193.644531 156.945312 185.261719 C 161.84375 186.332031 167.011719 187.160156 172.363281 187.703125 C 176.585938 191.222656 180.933594 194.472656 185.316406 197.40625 C 178.480469 201.695312 171.816406 205.007812 165.460938 207.261719 Z M 165.460938 95.757812 C 171.839844 98.023438 178.507812 101.335938 185.328125 105.625 C 181.007812 108.503906 176.660156 111.746094 172.363281 115.320312 C 167.015625 115.859375 161.847656 116.6875 156.945312 117.761719 C 159.0625 109.378906 161.980469 101.832031 165.460938 95.757812 Z M 209.539062 95.757812 C 213.019531 101.832031 215.9375 109.378906 218.054688 117.761719 C 213.152344 116.6875 207.988281 115.859375 202.636719 115.320312 C 198.375 111.761719 194.027344 108.519531 189.695312 105.625 C 196.523438 101.328125 203.1875 98.015625 209.539062 95.757812 Z M 205.855469 184.9375 C 208.5 182.605469 211.105469 180.164062 213.628906 177.640625 C 216.164062 175.101562 218.605469 172.496094 220.921875 169.867188 C 220.367188 174.300781 219.617188 178.59375 218.675781 182.6875 C 214.589844 183.625 210.296875 184.378906 205.855469 184.9375 Z M 156.324219 182.6875 C 155.375 178.554688 154.617188 174.253906 154.070312 169.847656 C 156.40625 172.507812 158.851562 175.117188 161.371094 177.636719 C 163.894531 180.160156 166.5 182.605469 169.144531 184.9375 C 164.703125 184.378906 160.410156 183.625 156.324219 182.6875 Z M 169.144531 118.085938 C 166.539062 120.386719 163.9375 122.828125 161.371094 125.382812 C 158.847656 127.90625 156.40625 130.511719 154.074219 133.15625 C 154.632812 128.71875 155.382812 124.421875 156.324219 120.332031 C 160.414062 119.394531 164.707031 118.640625 169.144531 118.085938 Z M 173.328125 185.40625 C 169.828125 182.445312 166.371094 179.269531 163.054688 175.957031 C 159.75 172.648438 156.574219 169.183594 153.605469 165.65625 C 153.167969 161.066406 152.941406 156.3125 152.941406 151.511719 C 152.941406 146.707031 153.167969 141.941406 153.605469 137.339844 C 156.566406 133.835938 159.742188 130.382812 163.054688 127.070312 C 166.4375 123.695312 169.894531 120.519531 173.328125 117.617188 C 177.933594 117.179688 182.695312 116.953125 187.5 116.953125 C 192.304688 116.953125 197.070312 117.179688 201.671875 117.617188 C 205.171875 120.578125 208.628906 123.753906 211.945312 127.066406 C 215.257812 130.382812 218.433594 133.839844 221.394531 137.34375 C 221.832031 141.941406 222.058594 146.707031 222.058594 151.511719 C 222.058594 156.351562 221.828125 161.113281 221.382812 165.679688 C 218.457031 169.15625 215.285156 172.613281 211.945312 175.957031 C 208.628906 179.273438 205.171875 182.445312 201.667969 185.40625 C 192.453125 186.28125 182.546875 186.28125 173.328125 185.40625 Z M 150.945312 162.410156 C 148.054688 158.800781 145.402344 155.144531 143.015625 151.5 C 145.40625 147.859375 148.0625 144.207031 150.945312 140.59375 C 150.691406 144.175781 150.558594 147.832031 150.558594 151.511719 C 150.558594 155.1875 150.691406 158.839844 150.945312 162.410156 Z M 224.054688 140.59375 C 226.914062 144.179688 229.574219 147.835938 231.992188 151.511719 C 229.5625 155.199219 226.90625 158.855469 224.046875 162.425781 C 224.304688 158.867188 224.4375 155.210938 224.4375 151.511719 C 224.441406 147.832031 224.308594 144.175781 224.054688 140.59375 Z M 213.628906 125.382812 C 211.105469 122.859375 208.5 120.417969 205.855469 118.085938 C 210.292969 118.644531 214.589844 119.398438 218.675781 120.335938 C 219.617188 124.425781 220.367188 128.71875 220.925781 133.15625 C 218.59375 130.511719 216.148438 127.90625 213.628906 125.382812 Z M 198.417969 114.957031 C 191.246094 114.449219 183.761719 114.449219 176.589844 114.957031 C 180.222656 112.0625 183.878906 109.40625 187.511719 107.027344 C 191.152344 109.417969 194.808594 112.074219 198.417969 114.957031 Z M 151.308594 136.375 C 147.753906 140.636719 144.507812 144.984375 141.613281 149.320312 C 137.339844 142.539062 134.023438 135.875 131.738281 129.472656 C 137.828125 125.988281 145.378906 123.066406 153.753906 120.957031 C 152.675781 125.859375 151.851562 131.023438 151.308594 136.375 Z M 141.613281 153.683594 C 144.5 158.019531 147.742188 162.363281 151.308594 166.625 C 151.835938 171.925781 152.664062 177.101562 153.753906 182.066406 C 145.371094 179.949219 137.824219 177.03125 131.75 173.550781 C 134.011719 167.171875 137.324219 160.503906 141.613281 153.683594 Z M 176.582031 188.066406 C 180.167969 188.320312 183.824219 188.453125 187.5 188.453125 C 191.175781 188.453125 194.832031 188.320312 198.417969 188.066406 C 194.832031 190.925781 191.175781 193.582031 187.5 196.003906 C 183.824219 193.582031 180.167969 190.925781 176.582031 188.066406 Z M 223.679688 166.648438 C 227.199219 162.441406 230.449219 158.09375 233.394531 153.691406 C 237.683594 160.527344 240.992188 167.195312 243.253906 173.550781 C 237.179688 177.03125 229.632812 179.953125 221.25 182.066406 C 222.328125 177.15625 223.148438 171.988281 223.679688 166.648438 Z M 233.394531 149.328125 C 230.464844 144.949219 227.214844 140.601562 223.691406 136.375 C 223.148438 131.023438 222.324219 125.859375 221.25 120.957031 C 229.632812 123.070312 237.179688 125.992188 243.253906 129.46875 C 240.996094 135.828125 237.683594 142.496094 233.394531 149.328125 Z M 234.296875 93.398438 C 233.972656 94.210938 233.785156 95.074219 233.785156 95.964844 C 233.785156 99.796875 236.910156 102.914062 240.75 102.914062 C 242.089844 102.914062 243.371094 102.53125 244.476562 101.824219 C 247.492188 107.941406 247.332031 116.839844 244.03125 127.175781 C 237.554688 123.53125 229.53125 120.496094 220.660156 118.351562 C 218.515625 109.476562 215.476562 101.449219 211.832031 94.976562 C 220.683594 92.140625 228.394531 91.597656 234.296875 93.398438 Z M 187.5 78.890625 C 194.964844 78.890625 202.308594 84.136719 208.296875 93.675781 C 201.632812 96.089844 194.648438 99.617188 187.511719 104.1875 C 180.382812 99.625 173.394531 96.097656 166.703125 93.675781 C 172.691406 84.136719 180.035156 78.890625 187.5 78.890625 Z M 133.554688 97.566406 C 139.480469 91.644531 149.964844 90.75 163.164062 94.984375 C 159.519531 101.457031 156.484375 109.480469 154.339844 118.351562 C 145.480469 120.492188 137.453125 123.527344 130.964844 127.175781 C 130.144531 124.609375 129.511719 122.117188 129.078125 119.742188 C 131.710938 118.730469 133.523438 116.167969 133.523438 113.261719 C 133.523438 110.246094 131.636719 107.65625 128.890625 106.699219 C 129.652344 102.996094 131.210938 99.921875 133.554688 97.566406 Z M 114.882812 151.511719 C 114.882812 144.050781 120.121094 136.703125 129.65625 130.710938 C 132.097656 137.433594 135.628906 144.414062 140.175781 151.5 C 135.613281 158.625 132.085938 165.617188 129.664062 172.308594 C 120.125 166.320312 114.882812 158.976562 114.882812 151.511719 Z M 133.554688 205.457031 C 127.632812 199.53125 126.738281 189.046875 130.972656 175.84375 C 137.445312 179.492188 145.46875 182.527344 154.339844 184.671875 C 156.484375 193.542969 159.519531 201.566406 163.164062 208.039062 C 149.964844 212.273438 139.480469 211.378906 133.554688 205.457031 Z M 187.5 224.128906 C 180.035156 224.128906 172.691406 218.886719 166.703125 209.34375 C 173.371094 206.933594 180.355469 203.414062 187.5 198.84375 C 194.644531 203.410156 201.632812 206.933594 208.296875 209.34375 C 202.308594 218.886719 194.964844 224.128906 187.5 224.128906 Z M 241.445312 205.457031 C 235.519531 211.378906 225.046875 212.273438 211.851562 208.046875 C 212.300781 207.246094 212.757812 206.394531 213.21875 205.484375 C 213.550781 205.535156 213.886719 205.558594 214.226562 205.558594 C 218.058594 205.558594 221.179688 202.433594 221.179688 198.59375 C 221.179688 196.34375 220.105469 194.273438 218.320312 192.976562 C 219.191406 190.3125 219.976562 187.527344 220.664062 184.671875 C 229.535156 182.527344 237.554688 179.492188 244.027344 175.847656 C 248.261719 189.042969 247.367188 199.53125 241.445312 205.457031 Z M 245.335938 172.308594 C 242.921875 165.640625 239.398438 158.65625 234.835938 151.511719 C 239.398438 144.367188 242.921875 137.382812 245.335938 130.710938 C 254.875 136.703125 260.117188 144.046875 260.117188 151.511719 C 260.117188 158.972656 254.875 166.316406 245.335938 172.308594 Z M 245.335938 172.308594 " fill-opacity="1" fill-rule="nonzero"/></g><path fill="#5ce1e6" d="M 203.679688 148.046875 C 203.679688 139.125 196.421875 131.867188 187.5 131.867188 C 178.578125 131.867188 171.320312 139.125 171.320312 148.046875 C 171.320312 156.972656 178.578125 164.238281 187.5 164.238281 C 196.421875 164.238281 203.679688 156.972656 203.679688 148.046875 Z M 203.679688 148.046875 " fill-opacity="1" fill-rule="nonzero"/></svg>